P2
2
9
255
0
0
0
0
0
0
209
209
209
209
209
209
255
255
255
255
255
255
